# xmcd
#
# Track frame offsets:
#	183
#	17720
#	33315
#	54888
#	78655
#	95528
#	116678
#	139263
#	157728
#	180625
#	197988
#	214893
#	228910
#
# Disc length: 3282 seconds
#
# Revision: 9
# Processed by: cddbd v1.5.2PL0 Copyright (c) Steve Scherf et al.
# Submitted via: audiograbber 1.83.01
#
DISCID=a90cd00d
DTITLE=Wet Wet Wet - Popped in souled out
DYEAR=1987
DGENRE=Pop
TTITLE0=Wishing I was lucky
TTITLE1=East of the river
TTITLE2=I remember
TTITLE3=Angel eyes (home and away)
TTITLE4=Sweet little mystery
TTITLE5=I don't believe (Sonny's letter)
TTITLE6=Temptation
TTITLE7=I can give you everything
TTITLE8=The moment you left me
TTITLE9=Words of wisdom
TTITLE10=Don't let me be lonely tonight
TTITLE11=World in another
TTITLE12=Wishing I was lucky (Live version)
EXTD=
EXTT0=
EXTT1=
EXTT2=
EXTT3=
EXTT4=
EXTT5=
EXTT6=
EXTT7=
EXTT8=
EXTT9=
EXTT10=
EXTT11=
EXTT12=
PLAYORDER=
